<svg xmlns="http://www.w3.org/2000/svg" viewBox="0 0 24 24" width="20" height="20" role="img" aria-labelledby="title desc" focusable="false">
  <title id="title">Icono de pago o transferencia de dinero</title>
  <desc id="desc">Un ícono lineal que representa una mano sosteniendo o recibiendo monedas con símbolo de dólar</desc>

  <!-- Mano -->
  <path d="M3 15.5c0 1.2 1 2.2 2.2 2.2h6.8c.8 0 1.5-.4 1.9-1l3.1-3.5c.4-.4.3-1.1-.1-1.5s-1.1-.3-1.5.1l-2.7 3H5.2c-.2 0-.4-.2-.4-.4s.2-.4.4-.4h4.6c.6 0 1-.5 1-1s-.4-1-1-1H5.2C4 12 3 13 3 14.2v1.3z"
        fill="none" stroke="#ffffff" stroke-width="1.8" stroke-linecap="round" stroke-linejoin="round"/>

  <!-- Monedas -->
  <circle cx="17" cy="6" r="2.8" fill="none" stroke="#ffffff" stroke-width="1.8"/>
  <circle cx="12" cy="9.5" r="2.2" fill="none" stroke="#ffffff" stroke-width="1.5"/>

  <!-- Símbolos de dólar -->
  <path d="M17 4.8v2.4m0-2.4c.6 0 1.1.3 1.1.8s-.5.8-1.1.8-1.1.3-1.1.8.5.8 1.1.8m0 .8v-2.4" fill="none" stroke="#ffffff" stroke-width="1" stroke-linecap="round"/>
  <path d="M12 8.6v1.8m0-1.8c.5 0 .9.2.9.6s-.4.6-.9.6-.9.2-.9.6.4.6.9.6m0 .6v-1.8" fill="none" stroke="#ffffff" stroke-width="0.9" stroke-linecap="round"/>

  <!-- Movimiento de dinero -->
  <path d="M10 8c1.2-.8 3-.8 4.2 0" fill="none" stroke="#ffffff" stroke-width="1.4" stroke-linecap="round"/>

</svg>
